{
  "accessors": [
    {
      "bufferView": 2,
      "componentType": 5126,
      "count": 1894,
      "max": [
        0.48553699254989624,
        0.47541698813438416,
        0.466280996799469
      ],
      "min": [
        -0.5338029861450195,
        -0.47117799520492554,
        -1.134950041770935
      ],
      "type": "VEC3"
    },
    {
      "bufferView": 2,
      "byteOffset": 22728,
      "componentType": 5126,
      "count": 1894,
      "max": [
        0.9990184903144836,
        0.9998562335968018,
        0.9959525465965271
      ],
      "min": [
        -0.9993804693222046,
        -0.9996945261955261,
        -0.9999302625656128
      ],
      "type": "VEC3"
    },
    {
      "bufferView": 3,
      "componentType": 5126,
      "count": 1894,
      "max": [
        0.9994889497756958,
        0.9998077750205994,
        0.9996693134307861,
        1.0
      ],
      "min": [
        -0.9999075531959534,
        -0.9984474778175354,
        -0.9999654293060303,
        -1.0
      ],
      "type": "VEC4"
    },
    {
      "bufferView": 1,
      "componentType": 5126,
      "count": 1894,
      "max": [
        0.9640290141105652,
        0.9900000095367432
      ],
      "min": [
        0.009999999776482582,
        0.009999999776482582
      ],
      "type": "VEC2"
    },
    {
      "bufferView": 0,
      "componentType": 5125,
      "count": 9144,
      "type": "SCALAR"
    }
  ],
  "asset": {
    "extras": {
      "author": "Pedro Perim (https://sketchfab.com/PedroPerim)",
      "license": "CC-BY-SA-4.0 (http://creativecommons.org/licenses/by-sa/4.0/)",
      "source": "https://sketchfab.com/3d-models/boxing-glove-84424f446e7f4c3b8bf1c3204b581f28",
      "title": "Boxing Glove"
    },
    "generator": "Sketchfab-12.67.0",
    "version": "2.0"
  },
  "bufferViews": [
    {
      "buffer": 0,
      "byteLength": 36576,
      "name": "floatBufferViews",
      "target": 34963
    },
    {
      "buffer": 0,
      "byteLength": 15152,
      "byteOffset": 36576,
      "byteStride": 8,
      "name": "floatBufferViews",
      "target": 34962
    },
    {
      "buffer": 0,
      "byteLength": 45456,
      "byteOffset": 51728,
      "byteStride": 12,
      "name": "floatBufferViews",
      "target": 34962
    },
    {
      "buffer": 0,
      "byteLength": 30304,
      "byteOffset": 97184,
      "byteStride": 16,
      "name": "floatBufferViews",
      "target": 34962
    }
  ],
  "buffers": [
    {
      "byteLength": 127488,
      "uri": "scene.bin"
    }
  ],
  "images": [
    {
      "uri": "textures/Glove_baseColor.png"
    },
    {
      "uri": "textures/Glove_metallicRoughness.png"
    },
    {
      "uri": "textures/Glove_normal.png"
    }
  ],
  "materials": [
    {
      "doubleSided": true,
      "name": "Glove",
      "normalTexture": {
        "index": 2
      },
      "occlusionTexture": {
        "index": 1
      },
      "pbrMetallicRoughness": {
        "baseColorTexture": {
          "index": 0
        },
        "metallicFactor": 0.0,
        "metallicRoughnessTexture": {
          "index": 1
        }
      }
    }
  ],
  "meshes": [
    {
      "name": "Object_0",
      "primitives": [
        {
          "attributes": {
            "NORMAL": 1,
            "POSITION": 0,
            "TANGENT": 2,
            "TEXCOORD_0": 3
          },
          "indices": 4,
          "material": 0,
          "mode": 4
        }
      ]
    }
  ],
  "nodes": [
    {
      "children": [
        1
      ],
      "matrix": [
        0.25,
        0.0,
        0.0,
        0.0,
        0.0,
        5.551115123125783e-17,
        -0.25,
        0.0,
        0.0,
        0.25,
        5.551115123125783e-17,
        0.0,
        0.0,
        0.0,
        0.0,
        1.0
      ],
      "name": "Sketchfab_model"
    },
    {
      "children": [
        2
      ],
      "name": "boxeglove_model.obj.cleaner.materialmerger.gles"
    },
    {
      "mesh": 0,
      "name": "Object_2"
    }
  ],
  "samplers": [
    {
      "magFilter": 9729,
      "minFilter": 9987,
      "wrapS": 10497,
      "wrapT": 10497
    }
  ],
  "scene": 0,
  "scenes": [
    {
      "name": "Sketchfab_Scene",
      "nodes": [
        0
      ]
    }
  ],
  "textures": [
    {
      "sampler": 0,
      "source": 0
    },
    {
      "sampler": 0,
      "source": 1
    },
    {
      "sampler": 0,
      "source": 2
    }
  ]
}
