{
  "accessors": [
    {
      "bufferView": 2,
      "componentType": 5126,
      "count": 9086,
      "max": [
        1.2952344417572021,
        1.2952344417572021,
        1.2952344417572021
      ],
      "min": [
        -1.2952344417572021,
        -1.2952344417572021,
        -1.2952344417572021
      ],
      "type": "VEC3"
    },
    {
      "bufferView": 2,
      "byteOffset": 109032,
      "componentType": 5126,
      "count": 9086,
      "max": [
        1.0,
        1.0,
        1.0
      ],
      "min": [
        -1.0,
        -1.0,
        -1.0
      ],
      "type": "VEC3"
    },
    {
      "bufferView": 1,
      "componentType": 5126,
      "count": 9086,
      "max": [
        0.7916668653488159,
        1.000000238418579
      ],
      "min": [
        0.208333358168602,
        0.0833333358168602
      ],
      "type": "VEC2"
    },
    {
      "bufferView": 0,
      "componentType": 5125,
      "count": 46080,
      "type": "SCALAR"
    },
    {
      "bufferView": 2,
      "byteOffset": 218064,
      "componentType": 5126,
      "count": 6001,
      "max": [
        1.2181191444396973,
        0.8779450058937073,
        0.9064143300056458
      ],
      "min": [
        -1.2181191444396973,
        -0.8779450058937073,
        -0.9064143300056458
      ],
      "type": "VEC3"
    },
    {
      "bufferView": 2,
      "byteOffset": 290076,
      "componentType": 5126,
      "count": 6001,
      "max": [
        0.989875316619873,
        0.9825937151908875,
        0.9984765648841858
      ],
      "min": [
        -0.989875316619873,
        -0.9825937151908875,
        -0.9984765648841858
      ],
      "type": "VEC3"
    },
    {
      "bufferView": 1,
      "byteOffset": 72688,
      "componentType": 5126,
      "count": 6001,
      "max": [
        0.6250001192092896,
        0.7500002384185791
      ],
      "min": [
        0.3750000596046448,
        0.0
      ],
      "type": "VEC2"
    },
    {
      "bufferView": 0,
      "byteOffset": 184320,
      "componentType": 5125,
      "count": 30720,
      "type": "SCALAR"
    },
    {
      "bufferView": 2,
      "byteOffset": 362088,
      "componentType": 5126,
      "count": 12176,
      "max": [
        0.9064143300056458,
        1.2181191444396973,
        1.2181191444396973
      ],
      "min": [
        -0.9064143300056458,
        -1.2181191444396973,
        -1.2181191444396973
      ],
      "type": "VEC3"
    },
    {
      "bufferView": 2,
      "byteOffset": 508200,
      "componentType": 5126,
      "count": 12176,
      "max": [
        0.9984765648841858,
        0.9984765648841858,
        0.989875316619873
      ],
      "min": [
        -0.9984765648841858,
        -0.9984765648841858,
        -0.989875316619873
      ],
      "type": "VEC3"
    },
    {
      "bufferView": 1,
      "byteOffset": 120696,
      "componentType": 5126,
      "count": 12176,
      "max": [
        0.8750002384185791,
        1.000000238418579
      ],
      "min": [
        0.1250000149011612,
        0.2500000298023224
      ],
      "type": "VEC2"
    },
    {
      "bufferView": 0,
      "byteOffset": 307200,
      "componentType": 5125,
      "count": 61440,
      "type": "SCALAR"
    }
  ],
  "asset": {
    "extras": {
      "author": "Yiwen Xiao (https://sketchfab.com/FireFoxStudio)",
      "license": "CC-BY-NC-4.0 (http://creativecommons.org/licenses/by-nc/4.0/)",
      "source": "https://sketchfab.com/3d-models/volleyball-9e82d5dcfcb84c4a939f46d479a91121",
      "title": "Volleyball"
    },
    "generator": "Sketchfab-12.64.0",
    "version": "2.0"
  },
  "bufferViews": [
    {
      "buffer": 0,
      "byteLength": 552960,
      "name": "floatBufferViews",
      "target": 34963
    },
    {
      "buffer": 0,
      "byteLength": 218104,
      "byteOffset": 552960,
      "byteStride": 8,
      "name": "floatBufferViews",
      "target": 34962
    },
    {
      "buffer": 0,
      "byteLength": 654312,
      "byteOffset": 771064,
      "byteStride": 12,
      "name": "floatBufferViews",
      "target": 34962
    }
  ],
  "buffers": [
    {
      "byteLength": 1425376,
      "uri": "scene.bin"
    }
  ],
  "materials": [
    {
      "doubleSided": true,
      "name": "Material",
      "pbrMetallicRoughness": {
        "baseColorFactor": [
          0.8,
          0.8,
          0.8,
          1.0
        ],
        "metallicFactor": 0.0,
        "roughnessFactor": 0.4
      }
    },
    {
      "doubleSided": true,
      "name": ".001",
      "pbrMetallicRoughness": {
        "baseColorFactor": [
          0.753546,
          0.8,
          0.32517,
          1.0
        ],
        "metallicFactor": 0.0,
        "roughnessFactor": 0.5
      }
    },
    {
      "doubleSided": true,
      "name": ".002",
      "pbrMetallicRoughness": {
        "baseColorFactor": [
          0.0,
          0.349349,
          0.8,
          1.0
        ],
        "metallicFactor": 0.0,
        "roughnessFactor": 0.5
      }
    }
  ],
  "meshes": [
    {
      "name": "Object_0",
      "primitives": [
        {
          "attributes": {
            "NORMAL": 1,
            "POSITION": 0,
            "TEXCOORD_0": 2
          },
          "indices": 3,
          "material": 0,
          "mode": 4
        }
      ]
    },
    {
      "name": "Object_1",
      "primitives": [
        {
          "attributes": {
            "NORMAL": 5,
            "POSITION": 4,
            "TEXCOORD_0": 6
          },
          "indices": 7,
          "material": 1,
          "mode": 4
        }
      ]
    },
    {
      "name": "Object_2",
      "primitives": [
        {
          "attributes": {
            "NORMAL": 9,
            "POSITION": 8,
            "TEXCOORD_0": 10
          },
          "indices": 11,
          "material": 2,
          "mode": 4
        }
      ]
    }
  ],
  "nodes": [
    {
      "children": [
        1
      ],
      "matrix": [
        1.0,
        0.0,
        0.0,
        0.0,
        0.0,
        2.220446049250313e-16,
        -1.0,
        0.0,
        0.0,
        1.0,
        2.220446049250313e-16,
        0.0,
        0.0,
        0.0,
        0.0,
        1.0
      ],
      "name": "Sketchfab_model"
    },
    {
      "children": [
        2
      ],
      "name": "root"
    },
    {
      "children": [
        3
      ],
      "matrix": [
        1.0,
        0.0,
        0.0,
        0.0,
        0.0,
        2.220446049250313e-16,
        1.0,
        0.0,
        0.0,
        -1.0,
        2.220446049250313e-16,
        0.0,
        0.0,
        0.0,
        0.0,
        1.0
      ],
      "name": "GLTF_SceneRootNode"
    },
    {
      "children": [
        4,
        5,
        6
      ],
      "name": "Cube_0"
    },
    {
      "mesh": 0,
      "name": "Object_4"
    },
    {
      "mesh": 1,
      "name": "Object_5"
    },
    {
      "mesh": 2,
      "name": "Object_6"
    }
  ],
  "scene": 0,
  "scenes": [
    {
      "name": "Sketchfab_Scene",
      "nodes": [
        0
      ]
    }
  ]
}
